<?xml version="1.0" encoding="utf-8"?>
<svg xmlns="http://www.w3.org/2000/svg"
	xmlns:xlink="http://www.w3.org/1999/xlink"
	width="56px" height="228px" viewBox="0 0 56 228">
<rect x="0" y="0" width="50" height="228" rx="3" fill="rgb(59,73,85)"/><path fillRule="evenodd" d="M 48.5 18C 48.5 18 56 25.5 56 25.5 56 25.5 48.5 33 48.5 33 48.5 33 41 25.5 41 25.5 41 25.5 48.5 18 48.5 18Z" fill="rgb(59,73,85)"/><path fillRule="evenodd" d="M 32.87 15C 34.6 15 36 16.4 36 18.12 36 18.83 35.77 19.48 35.37 20 35.37 20 34.12 21.25 34.12 21.25 34.12 21.25 29.75 16.87 29.75 16.87 29.75 16.87 31 15.62 31 15.62 31.52 15.23 32.17 15 32.87 15ZM 17.25 29.37C 17.25 29.37 16 35 16 35 16 35 21.62 33.75 21.62 33.75 21.62 33.75 33.19 22.19 33.19 22.19 33.19 22.19 28.81 17.81 28.81 17.81 28.81 17.81 17.25 29.37 17.25 29.37ZM 29.98 22.1C 29.98 22.1 21.23 30.85 21.23 30.85 21.23 30.85 20.15 29.77 20.15 29.77 20.15 29.77 28.9 21.02 28.9 21.02 28.9 21.02 29.98 22.1 29.98 22.1Z" fill="rgb(255,255,255)"/></svg>