<?xml version="1.0" encoding="utf-8"?>
<svg xmlns="http://www.w3.org/2000/svg"
	xmlns:xlink="http://www.w3.org/1999/xlink"
	width="56px" height="50px" viewBox="0 0 56 50">
<rect x="0" y="0" width="50" height="50" rx="3" fill="rgb(59,73,85)"/><path fillRule="evenodd" d="M 48.5 18C 48.5 18 56 25.5 56 25.5 56 25.5 48.5 33 48.5 33 48.5 33 41 25.5 41 25.5 41 25.5 48.5 18 48.5 18Z" fill="rgb(59,73,85)"/><path fillRule="evenodd" d="M 35.45 32.47C 35.08 32.82 34.64 33 34.13 33 34.13 33 16.87 33 16.87 33 16.36 33 15.92 32.82 15.55 32.47 15.18 32.11 15 31.68 15 31.18 15 31.18 15 22.16 15 22.16 15.34 22.53 15.74 22.86 16.18 23.15 19.01 25.01 20.95 26.32 22.01 27.07 22.45 27.39 22.81 27.64 23.09 27.81 23.37 27.99 23.74 28.17 24.2 28.36 24.66 28.54 25.09 28.64 25.49 28.64 25.49 28.64 25.5 28.64 25.5 28.64 25.5 28.64 25.51 28.64 25.51 28.64 25.91 28.64 26.34 28.54 26.8 28.36 27.26 28.17 27.63 27.99 27.91 27.81 28.19 27.64 28.55 27.39 28.99 27.07 30.32 26.14 32.27 24.83 34.83 23.15 35.27 22.85 35.66 22.52 36 22.16 36 22.16 36 31.18 36 31.18 36 31.68 35.82 32.11 35.45 32.47ZM 34 21.93C 31.06 23.91 29.23 25.14 28.51 25.62 28.43 25.68 28.27 25.79 28.01 25.97 27.76 26.15 27.55 26.29 27.38 26.4 27.21 26.51 27.01 26.64 26.77 26.77 26.53 26.91 26.31 27.01 26.1 27.08 25.89 27.15 25.69 27.18 25.51 27.18 25.51 27.18 25.5 27.18 25.5 27.18 25.5 27.18 25.49 27.18 25.49 27.18 25.31 27.18 25.11 27.15 24.9 27.08 24.69 27.01 24.47 26.91 24.23 26.77 23.99 26.64 23.79 26.51 23.62 26.4 23.45 26.29 23.24 26.15 22.99 25.97 22.73 25.79 22.57 25.68 22.49 25.62 21.78 25.14 20.75 24.45 19.42 23.55 18.08 22.65 17.28 22.11 17.02 21.93 16.53 21.61 16.07 21.18 15.64 20.62 15.21 20.06 15 19.54 15 19.07 15 18.48 15.16 17.98 15.49 17.59 15.81 17.2 16.27 17 16.87 17 16.87 17 34.12 17 34.12 17 34.63 17 35.07 17.18 35.44 17.53 35.81 17.89 36 18.32 36 18.82 36 19.42 35.81 19.99 35.43 20.53 35.04 21.08 34.57 21.54 34 21.93Z" fill="rgb(255,255,255)"/></svg>