<?xml version="1.0" encoding="utf-8"?>
<svg xmlns="http://www.w3.org/2000/svg"
	xmlns:xlink="http://www.w3.org/1999/xlink"
	width="56px" height="50px" viewBox="0 0 56 50">
<rect x="0" y="0" width="50" height="50" rx="3" fill="rgb(59,73,85)"/><path fillRule="evenodd" d="M 48.5 18C 48.5 18 56 25.5 56 25.5 56 25.5 48.5 33 48.5 33 48.5 33 41 25.5 41 25.5 41 25.5 48.5 18 48.5 18Z" fill="rgb(59,73,85)"/><path fillRule="evenodd" d="M 35.8 35.43C 35.57 35.79 35.18 36 34.75 36 34.75 36 15.24 36 15.24 36 14.82 36 14.43 35.79 14.2 35.43 13.97 35.07 13.94 34.62 14.11 34.23 14.11 34.23 16.6 28.58 16.6 28.58 16.71 28.32 16.91 28.1 17.16 27.97 17.16 27.97 21.02 25.94 21.02 25.94 21.11 25.9 21.21 25.91 21.29 25.96 22.38 26.8 23.66 27.24 25 27.24 26.34 27.24 27.62 26.8 28.71 25.96 28.79 25.91 28.89 25.9 28.98 25.94 28.98 25.94 32.84 27.97 32.84 27.97 33.09 28.1 33.29 28.32 33.4 28.58 33.4 28.58 35.89 34.23 35.89 34.23 36.06 34.62 36.03 35.07 35.8 35.43ZM 25 25.66C 22.28 25.66 20.07 23.05 20.07 19.83 20.07 15.36 22.28 14 25 14 27.72 14 29.93 15.36 29.93 19.83 29.93 23.05 27.72 25.66 25 25.66Z" fill="rgb(255,255,255)"/></svg>